<mxfile host="app.diagrams.net" modified="2022-04-23T13:31:12.569Z" agent="5.0 (Windows NT 10.0; Win64; x64) AppleWebKit/537.36 (KHTML, like Gecko) Chrome/100.0.4896.127 Safari/537.36" etag="0LYc9q5W5Zknij97CYuD" version="17.4.6" type="github">
  <diagram id="kvqeIL2OjIuKGK_8-Uiq" name="Page-1">
    <mxGraphModel dx="723" dy="375" grid="1" gridSize="10" guides="1" tooltips="1" connect="1" arrows="1" fold="1" page="1" pageScale="1" pageWidth="827" pageHeight="1169" math="0" shadow="0">
      <root>
        <mxCell id="0" />
        <mxCell id="1" parent="0" />
        <mxCell id="hNOO6SFEafOsVOQQRdr--5" value="" style="rounded=1;whiteSpace=wrap;html=1;fillColor=#f8cecc;strokeColor=#b85450;" vertex="1" parent="1">
          <mxGeometry x="520" y="160" width="190" height="410" as="geometry" />
        </mxCell>
        <mxCell id="hNOO6SFEafOsVOQQRdr--4" value="" style="rounded=1;whiteSpace=wrap;html=1;fillColor=#ffe6cc;strokeColor=#d79b00;" vertex="1" parent="1">
          <mxGeometry x="200" y="160" width="240" height="410" as="geometry" />
        </mxCell>
        <mxCell id="hNOO6SFEafOsVOQQRdr--30" style="edgeStyle=orthogonalEdgeStyle;rounded=0;orthogonalLoop=1;jettySize=auto;html=1;exitX=0.5;exitY=1;exitDx=0;exitDy=0;startArrow=classic;startFill=1;" edge="1" parent="1" source="hNOO6SFEafOsVOQQRdr--1" target="hNOO6SFEafOsVOQQRdr--7">
          <mxGeometry relative="1" as="geometry" />
        </mxCell>
        <mxCell id="hNOO6SFEafOsVOQQRdr--1" value="VM0" style="rounded=1;whiteSpace=wrap;html=1;" vertex="1" parent="1">
          <mxGeometry x="240" y="230" width="60" height="40" as="geometry" />
        </mxCell>
        <mxCell id="hNOO6SFEafOsVOQQRdr--31" style="edgeStyle=orthogonalEdgeStyle;rounded=0;orthogonalLoop=1;jettySize=auto;html=1;exitX=0.5;exitY=1;exitDx=0;exitDy=0;entryX=0.5;entryY=0;entryDx=0;entryDy=0;startArrow=classic;startFill=1;" edge="1" parent="1" source="hNOO6SFEafOsVOQQRdr--2" target="hNOO6SFEafOsVOQQRdr--8">
          <mxGeometry relative="1" as="geometry" />
        </mxCell>
        <mxCell id="hNOO6SFEafOsVOQQRdr--2" value="VM1" style="rounded=1;whiteSpace=wrap;html=1;" vertex="1" parent="1">
          <mxGeometry x="340" y="230" width="60" height="40" as="geometry" />
        </mxCell>
        <mxCell id="hNOO6SFEafOsVOQQRdr--33" value="" style="edgeStyle=orthogonalEdgeStyle;rounded=0;orthogonalLoop=1;jettySize=auto;html=1;startArrow=none;startFill=0;" edge="1" parent="1" source="hNOO6SFEafOsVOQQRdr--3" target="hNOO6SFEafOsVOQQRdr--18">
          <mxGeometry relative="1" as="geometry" />
        </mxCell>
        <mxCell id="hNOO6SFEafOsVOQQRdr--3" value="Docker" style="rounded=1;whiteSpace=wrap;html=1;fillColor=#b0e3e6;strokeColor=#0e8088;" vertex="1" parent="1">
          <mxGeometry x="555" y="390" width="120" height="50" as="geometry" />
        </mxCell>
        <mxCell id="hNOO6SFEafOsVOQQRdr--29" style="edgeStyle=orthogonalEdgeStyle;rounded=0;orthogonalLoop=1;jettySize=auto;html=1;exitX=0.75;exitY=1;exitDx=0;exitDy=0;entryX=0.75;entryY=0;entryDx=0;entryDy=0;startArrow=classic;startFill=1;" edge="1" parent="1" source="hNOO6SFEafOsVOQQRdr--7" target="hNOO6SFEafOsVOQQRdr--11">
          <mxGeometry relative="1" as="geometry">
            <Array as="points">
              <mxPoint x="285" y="380" />
              <mxPoint x="360" y="380" />
            </Array>
          </mxGeometry>
        </mxCell>
        <mxCell id="hNOO6SFEafOsVOQQRdr--7" value="TAP" style="rounded=1;whiteSpace=wrap;html=1;" vertex="1" parent="1">
          <mxGeometry x="240" y="300" width="60" height="60" as="geometry" />
        </mxCell>
        <mxCell id="hNOO6SFEafOsVOQQRdr--35" style="edgeStyle=orthogonalEdgeStyle;rounded=0;orthogonalLoop=1;jettySize=auto;html=1;entryX=0.75;entryY=0;entryDx=0;entryDy=0;startArrow=classic;startFill=1;exitX=0.75;exitY=1;exitDx=0;exitDy=0;" edge="1" parent="1" source="hNOO6SFEafOsVOQQRdr--8" target="hNOO6SFEafOsVOQQRdr--12">
          <mxGeometry relative="1" as="geometry">
            <mxPoint x="370" y="350" as="sourcePoint" />
          </mxGeometry>
        </mxCell>
        <mxCell id="hNOO6SFEafOsVOQQRdr--8" value="TAP" style="rounded=1;whiteSpace=wrap;html=1;" vertex="1" parent="1">
          <mxGeometry x="340" y="300" width="60" height="60" as="geometry" />
        </mxCell>
        <mxCell id="hNOO6SFEafOsVOQQRdr--11" value="&amp;nbsp; &amp;nbsp; OVS" style="rounded=1;whiteSpace=wrap;html=1;align=left;" vertex="1" parent="1">
          <mxGeometry x="240" y="400" width="160" height="60" as="geometry" />
        </mxCell>
        <mxCell id="hNOO6SFEafOsVOQQRdr--12" value="Bridge" style="rounded=1;whiteSpace=wrap;html=1;" vertex="1" parent="1">
          <mxGeometry x="340" y="400" width="60" height="20" as="geometry" />
        </mxCell>
        <mxCell id="hNOO6SFEafOsVOQQRdr--25" value="" style="edgeStyle=orthogonalEdgeStyle;rounded=0;orthogonalLoop=1;jettySize=auto;html=1;entryX=0;entryY=0.5;entryDx=0;entryDy=0;startArrow=none;startFill=0;" edge="1" parent="1" source="hNOO6SFEafOsVOQQRdr--13" target="hNOO6SFEafOsVOQQRdr--19">
          <mxGeometry relative="1" as="geometry">
            <mxPoint x="510" y="520" as="targetPoint" />
          </mxGeometry>
        </mxCell>
        <mxCell id="hNOO6SFEafOsVOQQRdr--27" style="edgeStyle=orthogonalEdgeStyle;rounded=0;orthogonalLoop=1;jettySize=auto;html=1;exitX=0.5;exitY=0;exitDx=0;exitDy=0;entryX=0.75;entryY=1;entryDx=0;entryDy=0;startArrow=classic;startFill=1;endArrow=none;endFill=0;" edge="1" parent="1" source="hNOO6SFEafOsVOQQRdr--13" target="hNOO6SFEafOsVOQQRdr--11">
          <mxGeometry relative="1" as="geometry" />
        </mxCell>
        <mxCell id="hNOO6SFEafOsVOQQRdr--13" value="Eno2" style="rounded=1;whiteSpace=wrap;html=1;" vertex="1" parent="1">
          <mxGeometry x="325" y="500" width="70" height="40" as="geometry" />
        </mxCell>
        <mxCell id="hNOO6SFEafOsVOQQRdr--14" value="Eno1" style="rounded=1;whiteSpace=wrap;html=1;" vertex="1" parent="1">
          <mxGeometry x="240" y="500" width="70" height="40" as="geometry" />
        </mxCell>
        <mxCell id="hNOO6SFEafOsVOQQRdr--18" value="sFlow" style="rounded=1;whiteSpace=wrap;html=1;fillColor=#dae8fc;strokeColor=#6c8ebf;" vertex="1" parent="1">
          <mxGeometry x="585" y="300" width="60" height="40" as="geometry" />
        </mxCell>
        <mxCell id="hNOO6SFEafOsVOQQRdr--32" style="edgeStyle=orthogonalEdgeStyle;rounded=0;orthogonalLoop=1;jettySize=auto;html=1;exitX=0.5;exitY=0;exitDx=0;exitDy=0;startArrow=none;startFill=0;" edge="1" parent="1" source="hNOO6SFEafOsVOQQRdr--19" target="hNOO6SFEafOsVOQQRdr--3">
          <mxGeometry relative="1" as="geometry" />
        </mxCell>
        <mxCell id="hNOO6SFEafOsVOQQRdr--19" value="eth0" style="rounded=1;whiteSpace=wrap;html=1;" vertex="1" parent="1">
          <mxGeometry x="580" y="500" width="70" height="40" as="geometry" />
        </mxCell>
        <mxCell id="hNOO6SFEafOsVOQQRdr--37" value="DELL POWEREDGE R310" style="text;html=1;align=center;verticalAlign=middle;resizable=0;points=[];autosize=1;strokeColor=none;fillColor=none;" vertex="1" parent="1">
          <mxGeometry x="235" y="180" width="160" height="20" as="geometry" />
        </mxCell>
        <mxCell id="hNOO6SFEafOsVOQQRdr--38" value="RASPBERRY PI3 MODEL B" style="text;html=1;align=center;verticalAlign=middle;resizable=0;points=[];autosize=1;strokeColor=none;fillColor=none;" vertex="1" parent="1">
          <mxGeometry x="530" y="180" width="170" height="20" as="geometry" />
        </mxCell>
      </root>
    </mxGraphModel>
  </diagram>
</mxfile>
